<svg width="335.05251464843747px" height="125.61248779296875px" xmlns="http://www.w3.org/2000/svg" viewBox="82.47374267578127 12.193756103515625 335.05251464843747 125.61248779296875" style="background: rgba(0, 0, 0, 0);" preserveAspectRatio="xMidYMid"><defs><filter id="editing-jagged" x="-100%" y="-100%" width="300%" height="300%"><feTurbulence result="turb" baseFrequency="0.1" numOctaves="1" seed="1"></feTurbulence><feDisplacementMap in="SourceGraphic" in2="turb" scale="10"></feDisplacementMap></filter></defs><g filter="url(#editing-jagged)"><g transform="translate(134.59500241279602, 106.69000053405762)"><path d="M35.09-1.03L30.41-11.91L11.34-11.91L11.34-11.91Q10.88-10.25 10.63-8.58L10.63-8.58L10.63-8.58Q10.38-6.91 10.38-5.25L10.38-5.25L10.38-5.25Q10.38-4.09 10.50-3L10.50-3L10.50-3Q10.63-1.91 10.91-0.91L10.91-0.91L6.03 0.44L6.03 0.44Q5.28 0.63 4.63 0.63L4.63 0.63L4.63 0.63Q2.72 0.63 2.72-1.22L2.72-1.22L2.72-1.22Q2.72-1.38 2.75-1.47L2.75-1.47L2.75-1.47Q2.78-1.56 2.78-1.72L2.78-1.72L2.78-1.72Q3.06-4.06 3.95-7.14L3.95-7.14L3.95-7.14Q4.84-10.22 6.13-13.66L6.13-13.66L6.13-13.66Q7.41-17.09 8.94-20.69L8.94-20.69L8.94-20.69Q10.47-24.28 12.03-27.67L12.03-27.67L12.03-27.67Q13.59-31.06 15.06-34.06L15.06-34.06L15.06-34.06Q16.53-37.06 17.67-39.31L17.67-39.31L17.67-39.31Q18.81-41.56 19.50-42.86L19.50-42.86L19.50-42.86Q20.19-44.16 20.19-44.16L20.19-44.16L23.38-44.16L23.38-44.16Q24.16-44.16 24.72-44.05L24.72-44.05L24.72-44.05Q25.28-43.94 25.70-43.66L25.70-43.66L25.70-43.66Q26.13-43.38 26.45-42.88L26.45-42.88L26.45-42.88Q26.78-42.38 27.09-41.59L27.09-41.59L41.50-5L47-7.16L48.03-4.94L48.03-4.94Q47.25-4.22 46.06-3.23L46.06-3.23L46.06-3.23Q44.88-2.25 43.48-1.36L43.48-1.36L43.48-1.36Q42.09-0.47 40.61 0.16L40.61 0.16L40.61 0.16Q39.13 0.78 37.78 0.78L37.78 0.78L37.78 0.78Q36.91 0.78 36.22 0.38L36.22 0.38L36.22 0.38Q35.53-0.03 35.09-1.03L35.09-1.03ZM21.28-37L20.94-37L20.94-37Q19.56-33.81 18.27-30.92L18.27-30.92L18.27-30.92Q16.97-28.03 15.83-25.44L15.83-25.44L15.83-25.44Q14.69-22.84 13.80-20.52L13.80-20.52L13.80-20.52Q12.91-18.19 12.38-16.19L12.38-16.19L28.81-16.19L21.28-37ZM61.16-46.34L61.16-3.13L66.59-3.13L66.59-0.78L66.59-0.78Q66.06-0.50 65.14-0.25L65.14-0.25L65.14-0.25Q64.22 0 63.09 0.19L63.09 0.19L63.09 0.19Q61.97 0.38 60.75 0.47L60.75 0.47L60.75 0.47Q59.53 0.56 58.41 0.56L58.41 0.56L58.41 0.56Q57.44 0.56 56.63 0.45L56.63 0.45L56.63 0.45Q55.81 0.34 55.22 0.02L55.22 0.02L55.22 0.02Q54.63-0.31 54.28-0.89L54.28-0.89L54.28-0.89Q53.94-1.47 53.94-2.44L53.94-2.44L53.94-44.34L48.41-44.34L48.41-46.72L48.41-46.72Q49.06-47 50.27-47.25L50.27-47.25L50.27-47.25Q51.47-47.50 52.88-47.66L52.88-47.66L52.88-47.66Q54.28-47.81 55.77-47.91L55.77-47.91L55.77-47.91Q57.25-48 58.47-48L58.47-48L58.47-48Q59.13-48 59.63-47.97L59.63-47.97L59.63-47.97Q60.13-47.94 60.47-47.78L60.47-47.78L60.47-47.78Q60.81-47.63 60.98-47.30L60.98-47.30L60.98-47.30Q61.16-46.97 61.16-46.34L61.16-46.34ZM82.44-46.34L82.44-3.13L87.88-3.13L87.88-0.78L87.88-0.78Q87.34-0.50 86.42-0.25L86.42-0.25L86.42-0.25Q85.50 0 84.38 0.19L84.38 0.19L84.38 0.19Q83.25 0.38 82.03 0.47L82.03 0.47L82.03 0.47Q80.81 0.56 79.69 0.56L79.69 0.56L79.69 0.56Q78.72 0.56 77.91 0.45L77.91 0.45L77.91 0.45Q77.09 0.34 76.50 0.02L76.50 0.02L76.50 0.02Q75.91-0.31 75.56-0.89L75.56-0.89L75.56-0.89Q75.22-1.47 75.22-2.44L75.22-2.44L75.22-44.34L69.69-44.34L69.69-46.72L69.69-46.72Q70.34-47 71.55-47.25L71.55-47.25L71.55-47.25Q72.75-47.50 74.16-47.66L74.16-47.66L74.16-47.66Q75.56-47.81 77.05-47.91L77.05-47.91L77.05-47.91Q78.53-48 79.75-48L79.75-48L79.75-48Q80.41-48 80.91-47.97L80.91-47.97L80.91-47.97Q81.41-47.94 81.75-47.78L81.75-47.78L81.75-47.78Q82.09-47.63 82.27-47.30L82.27-47.30L82.27-47.30Q82.44-46.97 82.44-46.34L82.44-46.34ZM109.97-26.69L109.97-26.69L109.97-26.69Q111.84-25.91 113.78-25.05L113.78-25.05L113.78-25.05Q115.72-24.19 117.52-23.20L117.52-23.20L117.52-23.20Q119.31-22.22 120.89-21.06L120.89-21.06L120.89-21.06Q122.47-19.91 123.64-18.50L123.64-18.50L123.64-18.50Q124.81-17.09 125.48-15.41L125.48-15.41L125.48-15.41Q126.16-13.72 126.16-11.66L126.16-11.66L126.16-11.66Q126.16-8.59 124.94-6.20L124.94-6.20L124.94-6.20Q123.72-3.81 121.66-2.17L121.66-2.17L121.66-2.17Q119.59-0.53 116.84 0.34L116.84 0.34L116.84 0.34Q114.09 1.22 111.06 1.22L111.06 1.22L111.06 1.22Q107 1.22 102.92 0.19L102.92 0.19L102.92 0.19Q98.84-0.84 95.25-3.25L95.25-3.25L95.25-3.25Q94.56-3.69 93.91-4.41L93.91-4.41L93.91-4.41Q93.25-5.13 93.25-5.94L93.25-5.94L93.25-5.94Q93.25-6.59 93.72-7.09L93.72-7.09L96.91-10.88L96.91-10.88Q98.41-9.69 100.22-8.28L100.22-8.28L100.22-8.28Q102.03-6.88 103.95-5.66L103.95-5.66L103.95-5.66Q105.88-4.44 107.78-3.63L107.78-3.63L107.78-3.63Q109.69-2.81 111.38-2.81L111.38-2.81L111.38-2.81Q112.78-2.81 114.13-3.28L114.13-3.28L114.13-3.28Q115.47-3.75 116.52-4.61L116.52-4.61L116.52-4.61Q117.56-5.47 118.20-6.70L118.20-6.70L118.20-6.70Q118.84-7.94 118.84-9.47L118.84-9.47L118.84-9.47Q118.84-11.44 117.81-13.06L117.81-13.06L117.81-13.06Q116.78-14.69 115.08-16.05L115.08-16.05L115.08-16.05Q113.38-17.41 111.20-18.53L111.20-18.53L111.20-18.53Q109.03-19.66 106.75-20.59L106.75-20.59L106.75-20.59Q102.97-22.19 100.63-23.80L100.63-23.80L100.63-23.80Q98.28-25.41 96.98-27.02L96.98-27.02L96.98-27.02Q95.69-28.63 95.23-30.22L95.23-30.22L95.23-30.22Q94.78-31.81 94.78-33.34L94.78-33.34L94.78-33.34Q94.78-35.66 95.56-37.44L95.56-37.44L95.56-37.44Q96.34-39.22 97.67-40.55L97.67-40.55L97.67-40.55Q99-41.88 100.78-42.78L100.78-42.78L100.78-42.78Q102.56-43.69 104.56-44.25L104.56-44.25L104.56-44.25Q106.56-44.81 108.67-45.06L108.67-45.06L108.67-45.06Q110.78-45.31 112.78-45.31L112.78-45.31L112.78-45.31Q113.66-45.31 114.84-45.23L114.84-45.23L114.84-45.23Q116.03-45.16 117.31-45L117.31-45L117.31-45Q118.59-44.84 119.84-44.58L119.84-44.58L119.84-44.58Q121.09-44.31 122.08-43.92L122.08-43.92L122.08-43.92Q123.06-43.53 123.67-43L123.67-43L123.67-43Q124.28-42.47 124.28-41.78L124.28-41.78L124.28-41.78Q124.28-41.25 123.91-40.56L123.91-40.56L121.41-36.28L121.41-36.28Q120.03-37.06 118.56-37.94L118.56-37.94L118.56-37.94Q117.09-38.81 115.50-39.52L115.50-39.52L115.50-39.52Q113.91-40.22 112.20-40.69L112.20-40.69L112.20-40.69Q110.50-41.16 108.63-41.16L108.63-41.16L108.63-41.16Q107.31-41.16 106.09-40.75L106.09-40.75L106.09-40.75Q104.88-40.34 103.97-39.52L103.97-39.52L103.97-39.52Q103.06-38.69 102.52-37.45L102.52-37.45L102.52-37.45Q101.97-36.22 101.97-34.56L101.97-34.56L101.97-34.56Q101.97-33.16 102.64-32L102.64-32L102.64-32Q103.31-30.84 104.42-29.88L104.42-29.88L104.42-29.88Q105.53-28.91 106.97-28.13L106.97-28.13L106.97-28.13Q108.41-27.34 109.97-26.69ZM153.81-2.44L153.81-2.75L153.81-2.75Q153.81-2.75 153.39-2.48L153.39-2.48L153.39-2.48Q152.97-2.22 152.23-1.81L152.23-1.81L152.23-1.81Q151.50-1.41 150.52-0.92L150.52-0.92L150.52-0.92Q149.53-0.44 148.36-0.02L148.36-0.02L148.36-0.02Q147.19 0.41 145.92 0.69L145.92 0.69L145.92 0.69Q144.66 0.97 143.38 0.97L143.38 0.97L143.38 0.97Q141.34 0.97 139.50 0.42L139.50 0.42L139.50 0.42Q137.66-0.13 136.27-1.28L136.27-1.28L136.27-1.28Q134.88-2.44 134.05-4.19L134.05-4.19L134.05-4.19Q133.22-5.94 133.22-8.38L133.22-8.38L133.22-8.38Q133.22-11.06 134.42-12.94L134.42-12.94L134.42-12.94Q135.63-14.81 137.77-15.98L137.77-15.98L137.77-15.98Q139.91-17.16 142.88-17.67L142.88-17.67L142.88-17.67Q145.84-18.19 149.41-18.19L149.41-18.19L153.81-18.19L153.81-20.53L153.81-20.53Q153.81-22.34 153.67-24.02L153.67-24.02L153.67-24.02Q153.53-25.69 153.02-26.94L153.02-26.94L153.02-26.94Q152.50-28.19 151.52-28.94L151.52-28.94L151.52-28.94Q150.53-29.69 148.88-29.69L148.88-29.69L148.88-29.69Q147.28-29.69 145.69-29.11L145.69-29.11L145.69-29.11Q144.09-28.53 142.56-27.66L142.56-27.66L142.56-27.66Q141.03-26.78 139.63-25.73L139.63-25.73L139.63-25.73Q138.22-24.69 137.06-23.75L137.06-23.75L134.50-27.19L134.50-27.19Q134.03-27.75 134.03-28.34L134.03-28.34L134.03-28.34Q134.03-29.38 135.33-30.22L135.33-30.22L135.33-30.22Q136.63-31.06 138.58-31.67L138.58-31.67L138.58-31.67Q140.53-32.28 142.78-32.63L142.78-32.63L142.78-32.63Q145.03-32.97 146.97-32.97L146.97-32.97L146.97-32.97Q149.84-32.97 152.41-32.28L152.41-32.28L152.41-32.28Q154.97-31.59 156.89-30.11L156.89-30.11L156.89-30.11Q158.81-28.63 159.94-26.27L159.94-26.27L159.94-26.27Q161.06-23.91 161.06-20.53L161.06-20.53L161.06-3.13L166.50-3.13L166.50-0.78L166.50-0.78Q165.97-0.50 165.05-0.25L165.05-0.25L165.05-0.25Q164.13 0 163 0.19L163 0.19L163 0.19Q161.88 0.38 160.64 0.47L160.64 0.47L160.64 0.47Q159.41 0.56 158.28 0.56L158.28 0.56L158.28 0.56Q157.53 0.56 156.75 0.47L156.75 0.47L156.75 0.47Q155.97 0.38 155.33 0.05L155.33 0.05L155.33 0.05Q154.69-0.28 154.27-0.86L154.27-0.86L154.27-0.86Q153.84-1.44 153.81-2.44L153.81-2.44ZM145.56-3.66L145.56-3.66L145.56-3.66Q146.66-3.66 148.08-3.95L148.08-3.95L148.08-3.95Q149.50-4.25 150.78-4.59L150.78-4.59L150.78-4.59Q152.28-5 153.81-5.56L153.81-5.56L153.81-14.34L148.56-14.34L148.56-14.34Q147.38-14.34 145.95-14.13L145.95-14.13L145.95-14.13Q144.53-13.91 143.30-13.30L143.30-13.30L143.30-13.30Q142.06-12.69 141.22-11.59L141.22-11.59L141.22-11.59Q140.38-10.50 140.38-8.72L140.38-8.72L140.38-8.72Q140.38-7.59 140.72-6.67L140.72-6.67L140.72-6.67Q141.06-5.75 141.72-5.08L141.72-5.08L141.72-5.08Q142.38-4.41 143.34-4.03L143.34-4.03L143.34-4.03Q144.31-3.66 145.56-3.66ZM190.22-28.16L183.81-28.16L183.81 0.50L183.81 0.50Q183.81 4.31 182.52 7.13L182.52 7.13L182.52 7.13Q181.22 9.94 179.08 11.77L179.08 11.77L179.08 11.77Q176.94 13.59 174.22 14.48L174.22 14.48L174.22 14.48Q171.50 15.38 168.66 15.38L168.66 15.38L168.66 15.38Q168.03 15.38 167 15.31L167 15.31L167 15.31Q165.97 15.25 164.98 15.06L164.98 15.06L164.98 15.06Q164 14.88 163.28 14.50L163.28 14.50L163.28 14.50Q162.56 14.13 162.56 13.50L162.56 13.50L162.56 13.50Q162.56 13.34 162.59 13.22L162.59 13.22L162.59 13.22Q162.63 13.09 162.69 12.94L162.69 12.94L164.75 8.19L164.75 8.19Q165.91 8.69 167.09 9.19L167.09 9.19L167.09 9.19Q168.28 9.69 169.38 10.09L169.38 10.09L169.38 10.09Q170.47 10.50 171.45 10.75L171.45 10.75L171.45 10.75Q172.44 11 173.19 11L173.19 11L173.19 11Q174.50 11 175.22 10.02L175.22 10.02L175.22 10.02Q175.94 9.03 176.25 7.52L176.25 7.52L176.25 7.52Q176.56 6 176.61 4.16L176.61 4.16L176.61 4.16Q176.66 2.31 176.66 0.56L176.66 0.56L176.59-28.16L169.16-28.16L169.16-29.56L169.16-29.56Q169.16-30.97 169.77-31.48L169.77-31.48L169.77-31.48Q170.38-32 171.72-32L171.72-32L176.59-32L176.59-34.06L176.59-34.06Q176.59-37.81 177.77-40.45L177.77-40.45L177.77-40.45Q178.94-43.09 180.91-44.77L180.91-44.77L180.91-44.77Q182.88-46.44 185.42-47.22L185.42-47.22L185.42-47.22Q187.97-48 190.72-48L190.72-48L190.72-48Q191.31-48 192.45-47.94L192.45-47.94L192.45-47.94Q193.59-47.88 194.72-47.64L194.72-47.64L194.72-47.64Q195.84-47.41 196.67-46.92L196.67-46.92L196.67-46.92Q197.50-46.44 197.50-45.63L197.50-45.63L197.50-45.63Q197.50-45.38 197.42-45.19L197.42-45.19L197.42-45.19Q197.34-45 197.19-44.75L197.19-44.75L194.88-40.56L194.88-40.56Q193.69-41.19 192.59-41.81L192.59-41.81L192.59-41.81Q191.50-42.44 190.50-42.92L190.50-42.92L190.50-42.92Q189.50-43.41 188.58-43.72L188.58-43.72L188.58-43.72Q187.66-44.03 186.88-44.03L186.88-44.03L186.88-44.03Q185.81-44.03 185.20-43.50L185.20-43.50L185.20-43.50Q184.59-42.97 184.28-41.97L184.28-41.97L184.28-41.97Q183.97-40.97 183.89-39.52L183.89-39.52L183.89-39.52Q183.81-38.06 183.81-36.22L183.81-36.22L183.81-32L192.78-32L192.78-30.66L192.78-30.66Q192.78-29.25 192.17-28.70L192.17-28.70L192.17-28.70Q191.56-28.16 190.22-28.16L190.22-28.16ZM204.41-18.25L220.59-18.25L220.59-18.25Q220.78-18.88 220.84-19.50L220.84-19.50L220.84-19.50Q220.91-20.13 220.91-20.81L220.91-20.81L220.91-20.81Q220.91-22.34 220.39-23.89L220.39-23.89L220.39-23.89Q219.88-25.44 218.89-26.69L218.89-26.69L218.89-26.69Q217.91-27.94 216.45-28.72L216.45-28.72L216.45-28.72Q215-29.50 213.13-29.50L213.13-29.50L213.13-29.50Q210.72-29.50 209.11-28.58L209.11-28.58L209.11-28.58Q207.50-27.66 206.48-26.11L206.48-26.11L206.48-26.11Q205.47-24.56 205-22.52L205-22.52L205-22.52Q204.53-20.47 204.41-18.25L204.41-18.25ZM197.13-16L197.13-16L197.13-16Q197.13-19.72 198.33-22.83L198.33-22.83L198.33-22.83Q199.53-25.94 201.80-28.19L201.80-28.19L201.80-28.19Q204.06-30.44 207.34-31.70L207.34-31.70L207.34-31.70Q210.63-32.97 214.78-32.97L214.78-32.97L214.78-32.97Q217.91-32.97 220.38-31.97L220.38-31.97L220.38-31.97Q222.84-30.97 224.56-29.28L224.56-29.28L224.56-29.28Q226.28-27.59 227.19-25.38L227.19-25.38L227.19-25.38Q228.09-23.16 228.09-20.75L228.09-20.75L228.09-20.75Q228.09-19.63 227.91-18.50L227.91-18.50L227.91-18.50Q227.72-17.38 227.19-16.47L227.19-16.47L227.19-16.47Q226.66-15.56 225.69-14.98L225.69-14.98L225.69-14.98Q224.72-14.41 223.16-14.41L223.16-14.41L204.47-14.41L204.47-14.41Q204.78-11.59 205.94-9.44L205.94-9.44L205.94-9.44Q207.09-7.28 208.91-5.80L208.91-5.80L208.91-5.80Q210.72-4.31 213.09-3.56L213.09-3.56L213.09-3.56Q215.47-2.81 218.22-2.81L218.22-2.81L218.22-2.81Q220.09-2.81 222.09-3.14L222.09-3.14L222.09-3.14Q224.09-3.47 226.22-4.16L226.22-4.16L227.25-2.06L227.25-2.06Q225.97-1.19 224.50-0.56L224.50-0.56L224.50-0.56Q223.03 0.06 221.47 0.45L221.47 0.45L221.47 0.45Q219.91 0.84 218.28 1.03L218.28 1.03L218.28 1.03Q216.66 1.22 215.09 1.22L215.09 1.22L215.09 1.22Q211.66 1.22 208.42 0.14L208.42 0.14L208.42 0.14Q205.19-0.94 202.67-3.09L202.67-3.09L202.67-3.09Q200.16-5.25 198.64-8.47L198.64-8.47L198.64-8.47Q197.13-11.69 197.13-16Z" fill="#444"></path></g></g><style>text {
  font-size: 64px;
  font-family: Arial Black;
  dominant-baseline: central;
  text-anchor: middle;
}</style></svg>